<mxfile host="app.diagrams.net" modified="2022-09-19T14:58:24.622Z" agent="5.0 (Windows NT 10.0; Win64; x64) AppleWebKit/537.36 (KHTML, like Gecko) Chrome/105.0.0.0 Safari/537.36" etag="Zk7BypqQU8iYFiaK6aci" version="20.3.3" type="github">
  <diagram id="CexGx60Go46FRo2P07aT" name="Page-1">
    <mxGraphModel dx="2003" dy="601" grid="1" gridSize="10" guides="1" tooltips="1" connect="1" arrows="1" fold="1" page="1" pageScale="1" pageWidth="850" pageHeight="1100" math="0" shadow="0">
      <root>
        <mxCell id="0" />
        <mxCell id="1" parent="0" />
        <mxCell id="CxmfcUG0f4hKPXph-VwC-1" value="&lt;font style=&quot;font-size: 20px;&quot;&gt;User&lt;/font&gt;" style="rounded=0;whiteSpace=wrap;html=1;" vertex="1" parent="1">
          <mxGeometry x="-180" y="260" width="120" height="60" as="geometry" />
        </mxCell>
        <mxCell id="CxmfcUG0f4hKPXph-VwC-2" value="&lt;font style=&quot;font-size: 20px;&quot;&gt;Contact&lt;/font&gt;" style="rounded=0;whiteSpace=wrap;html=1;" vertex="1" parent="1">
          <mxGeometry x="480" y="250" width="120" height="60" as="geometry" />
        </mxCell>
        <mxCell id="CxmfcUG0f4hKPXph-VwC-3" value="&lt;u&gt;&lt;font style=&quot;font-size: 16px;&quot;&gt;id&lt;/font&gt;&lt;/u&gt;" style="ellipse;whiteSpace=wrap;html=1;fontSize=20;" vertex="1" parent="1">
          <mxGeometry x="-360" y="120" width="100" height="60" as="geometry" />
        </mxCell>
        <mxCell id="CxmfcUG0f4hKPXph-VwC-4" value="&lt;font style=&quot;font-size: 16px;&quot;&gt;Name&lt;/font&gt;" style="ellipse;whiteSpace=wrap;html=1;fontSize=20;" vertex="1" parent="1">
          <mxGeometry x="-310" y="50" width="100" height="60" as="geometry" />
        </mxCell>
        <mxCell id="CxmfcUG0f4hKPXph-VwC-5" value="&lt;font style=&quot;font-size: 16px;&quot;&gt;Email&lt;/font&gt;" style="ellipse;whiteSpace=wrap;html=1;fontSize=20;" vertex="1" parent="1">
          <mxGeometry x="-150" y="20" width="100" height="60" as="geometry" />
        </mxCell>
        <mxCell id="CxmfcUG0f4hKPXph-VwC-6" value="&lt;font style=&quot;font-size: 16px;&quot;&gt;Password&lt;/font&gt;" style="ellipse;whiteSpace=wrap;html=1;fontSize=20;" vertex="1" parent="1">
          <mxGeometry x="-20" y="70" width="100" height="60" as="geometry" />
        </mxCell>
        <mxCell id="CxmfcUG0f4hKPXph-VwC-7" value="&lt;font style=&quot;font-size: 16px;&quot;&gt;Image&lt;/font&gt;" style="ellipse;whiteSpace=wrap;html=1;fontSize=20;" vertex="1" parent="1">
          <mxGeometry x="5" y="150" width="100" height="60" as="geometry" />
        </mxCell>
        <mxCell id="CxmfcUG0f4hKPXph-VwC-8" value="&lt;font style=&quot;font-size: 16px;&quot;&gt;About&lt;/font&gt;" style="ellipse;whiteSpace=wrap;html=1;fontSize=20;" vertex="1" parent="1">
          <mxGeometry x="20" y="250" width="100" height="60" as="geometry" />
        </mxCell>
        <mxCell id="CxmfcUG0f4hKPXph-VwC-9" value="&lt;font style=&quot;font-size: 16px;&quot;&gt;role&lt;/font&gt;" style="ellipse;whiteSpace=wrap;html=1;fontSize=20;" vertex="1" parent="1">
          <mxGeometry x="-380" y="190" width="100" height="60" as="geometry" />
        </mxCell>
        <mxCell id="CxmfcUG0f4hKPXph-VwC-10" value="&lt;font style=&quot;font-size: 16px;&quot;&gt;enable&lt;/font&gt;" style="ellipse;whiteSpace=wrap;html=1;fontSize=20;" vertex="1" parent="1">
          <mxGeometry x="-380" y="260" width="100" height="60" as="geometry" />
        </mxCell>
        <mxCell id="CxmfcUG0f4hKPXph-VwC-13" value="" style="endArrow=none;html=1;rounded=0;fontSize=16;exitX=0.441;exitY=-0.024;exitDx=0;exitDy=0;exitPerimeter=0;" edge="1" parent="1" source="CxmfcUG0f4hKPXph-VwC-1" target="CxmfcUG0f4hKPXph-VwC-5">
          <mxGeometry width="50" height="50" relative="1" as="geometry">
            <mxPoint x="-140" y="190" as="sourcePoint" />
            <mxPoint x="-90" y="140" as="targetPoint" />
          </mxGeometry>
        </mxCell>
        <mxCell id="CxmfcUG0f4hKPXph-VwC-14" value="" style="endArrow=none;html=1;rounded=0;fontSize=16;" edge="1" parent="1" target="CxmfcUG0f4hKPXph-VwC-6">
          <mxGeometry width="50" height="50" relative="1" as="geometry">
            <mxPoint x="-110" y="260" as="sourcePoint" />
            <mxPoint x="-93.88247300659009" y="89.90942168039692" as="targetPoint" />
          </mxGeometry>
        </mxCell>
        <mxCell id="CxmfcUG0f4hKPXph-VwC-15" value="" style="endArrow=none;html=1;rounded=0;fontSize=16;" edge="1" parent="1" target="CxmfcUG0f4hKPXph-VwC-7">
          <mxGeometry width="50" height="50" relative="1" as="geometry">
            <mxPoint x="-80" y="260" as="sourcePoint" />
            <mxPoint x="16.758305050535455" y="136.56193708510227" as="targetPoint" />
          </mxGeometry>
        </mxCell>
        <mxCell id="CxmfcUG0f4hKPXph-VwC-16" value="" style="endArrow=none;html=1;rounded=0;fontSize=16;" edge="1" parent="1" target="CxmfcUG0f4hKPXph-VwC-8">
          <mxGeometry width="50" height="50" relative="1" as="geometry">
            <mxPoint x="-60" y="270" as="sourcePoint" />
            <mxPoint x="29.425748760014358" y="211.08103777184328" as="targetPoint" />
          </mxGeometry>
        </mxCell>
        <mxCell id="CxmfcUG0f4hKPXph-VwC-17" value="" style="endArrow=none;html=1;rounded=0;fontSize=16;exitX=0.25;exitY=0;exitDx=0;exitDy=0;" edge="1" parent="1" source="CxmfcUG0f4hKPXph-VwC-1" target="CxmfcUG0f4hKPXph-VwC-4">
          <mxGeometry width="50" height="50" relative="1" as="geometry">
            <mxPoint x="-117.07999999999993" y="268.55999999999995" as="sourcePoint" />
            <mxPoint x="-93.88247300659009" y="89.90942168039692" as="targetPoint" />
          </mxGeometry>
        </mxCell>
        <mxCell id="CxmfcUG0f4hKPXph-VwC-18" value="" style="endArrow=none;html=1;rounded=0;fontSize=16;" edge="1" parent="1" source="CxmfcUG0f4hKPXph-VwC-1" target="CxmfcUG0f4hKPXph-VwC-3">
          <mxGeometry width="50" height="50" relative="1" as="geometry">
            <mxPoint x="-140" y="270" as="sourcePoint" />
            <mxPoint x="-232.7872675420847" y="118.16628947658864" as="targetPoint" />
          </mxGeometry>
        </mxCell>
        <mxCell id="CxmfcUG0f4hKPXph-VwC-19" value="" style="endArrow=none;html=1;rounded=0;fontSize=16;exitX=0;exitY=0.25;exitDx=0;exitDy=0;" edge="1" parent="1" source="CxmfcUG0f4hKPXph-VwC-1" target="CxmfcUG0f4hKPXph-VwC-9">
          <mxGeometry width="50" height="50" relative="1" as="geometry">
            <mxPoint x="-150.71428571428578" y="270" as="sourcePoint" />
            <mxPoint x="-268.4286828395111" y="183.26307580246544" as="targetPoint" />
          </mxGeometry>
        </mxCell>
        <mxCell id="CxmfcUG0f4hKPXph-VwC-20" value="" style="endArrow=none;html=1;rounded=0;fontSize=16;exitX=0;exitY=0.5;exitDx=0;exitDy=0;" edge="1" parent="1" source="CxmfcUG0f4hKPXph-VwC-1" target="CxmfcUG0f4hKPXph-VwC-10">
          <mxGeometry width="50" height="50" relative="1" as="geometry">
            <mxPoint x="-170" y="285" as="sourcePoint" />
            <mxPoint x="-277.3359083174021" y="245.64350028361923" as="targetPoint" />
          </mxGeometry>
        </mxCell>
        <mxCell id="CxmfcUG0f4hKPXph-VwC-21" value="description" style="ellipse;whiteSpace=wrap;html=1;fontSize=16;" vertex="1" parent="1">
          <mxGeometry x="350" y="140" width="90" height="60" as="geometry" />
        </mxCell>
        <mxCell id="CxmfcUG0f4hKPXph-VwC-22" value="&lt;u&gt;cid&lt;/u&gt;" style="ellipse;whiteSpace=wrap;html=1;fontSize=16;" vertex="1" parent="1">
          <mxGeometry x="370" y="50" width="90" height="60" as="geometry" />
        </mxCell>
        <mxCell id="CxmfcUG0f4hKPXph-VwC-23" value="&amp;nbsp; &amp;nbsp;name&lt;span style=&quot;white-space: pre;&quot;&gt;	&lt;/span&gt;" style="ellipse;whiteSpace=wrap;html=1;fontSize=16;" vertex="1" parent="1">
          <mxGeometry x="490" y="20" width="90" height="60" as="geometry" />
        </mxCell>
        <mxCell id="CxmfcUG0f4hKPXph-VwC-24" value="nickName" style="ellipse;whiteSpace=wrap;html=1;fontSize=16;" vertex="1" parent="1">
          <mxGeometry x="590" y="20" width="90" height="60" as="geometry" />
        </mxCell>
        <mxCell id="CxmfcUG0f4hKPXph-VwC-26" value="&amp;nbsp; &amp;nbsp; work&lt;span style=&quot;white-space: pre;&quot;&gt;	&lt;/span&gt;" style="ellipse;whiteSpace=wrap;html=1;fontSize=16;" vertex="1" parent="1">
          <mxGeometry x="650" y="70" width="90" height="60" as="geometry" />
        </mxCell>
        <mxCell id="CxmfcUG0f4hKPXph-VwC-27" value="image" style="ellipse;whiteSpace=wrap;html=1;fontSize=16;" vertex="1" parent="1">
          <mxGeometry x="680" y="150" width="90" height="60" as="geometry" />
        </mxCell>
        <mxCell id="CxmfcUG0f4hKPXph-VwC-28" value="email" style="ellipse;whiteSpace=wrap;html=1;fontSize=16;" vertex="1" parent="1">
          <mxGeometry x="700" y="240" width="90" height="60" as="geometry" />
        </mxCell>
        <mxCell id="CxmfcUG0f4hKPXph-VwC-30" value="Phone No" style="ellipse;whiteSpace=wrap;html=1;fontSize=16;" vertex="1" parent="1">
          <mxGeometry x="330" y="220" width="90" height="60" as="geometry" />
        </mxCell>
        <mxCell id="CxmfcUG0f4hKPXph-VwC-31" value="" style="endArrow=none;html=1;rounded=0;fontSize=16;exitX=0.5;exitY=0;exitDx=0;exitDy=0;" edge="1" parent="1" source="CxmfcUG0f4hKPXph-VwC-2" target="CxmfcUG0f4hKPXph-VwC-23">
          <mxGeometry width="50" height="50" relative="1" as="geometry">
            <mxPoint x="350" y="135" as="sourcePoint" />
            <mxPoint x="580" y="65" as="targetPoint" />
          </mxGeometry>
        </mxCell>
        <mxCell id="CxmfcUG0f4hKPXph-VwC-32" value="" style="endArrow=none;html=1;rounded=0;fontSize=16;" edge="1" parent="1" target="CxmfcUG0f4hKPXph-VwC-24">
          <mxGeometry width="50" height="50" relative="1" as="geometry">
            <mxPoint x="550" y="250" as="sourcePoint" />
            <mxPoint x="545.6427915554655" y="89.99693925504948" as="targetPoint" />
          </mxGeometry>
        </mxCell>
        <mxCell id="CxmfcUG0f4hKPXph-VwC-33" value="" style="endArrow=none;html=1;rounded=0;fontSize=16;" edge="1" parent="1" target="CxmfcUG0f4hKPXph-VwC-26">
          <mxGeometry width="50" height="50" relative="1" as="geometry">
            <mxPoint x="570" y="250" as="sourcePoint" />
            <mxPoint x="632.8283980031779" y="88.88176745008684" as="targetPoint" />
          </mxGeometry>
        </mxCell>
        <mxCell id="CxmfcUG0f4hKPXph-VwC-34" value="" style="endArrow=none;html=1;rounded=0;fontSize=16;" edge="1" parent="1" target="CxmfcUG0f4hKPXph-VwC-27">
          <mxGeometry width="50" height="50" relative="1" as="geometry">
            <mxPoint x="600" y="250" as="sourcePoint" />
            <mxPoint x="683.2416879458779" y="136.26003178945734" as="targetPoint" />
          </mxGeometry>
        </mxCell>
        <mxCell id="CxmfcUG0f4hKPXph-VwC-35" value="" style="endArrow=none;html=1;rounded=0;fontSize=16;exitX=1;exitY=0.25;exitDx=0;exitDy=0;" edge="1" parent="1" source="CxmfcUG0f4hKPXph-VwC-2" target="CxmfcUG0f4hKPXph-VwC-28">
          <mxGeometry width="50" height="50" relative="1" as="geometry">
            <mxPoint x="610" y="260.0000000000001" as="sourcePoint" />
            <mxPoint x="700.6251468504397" y="209.36054947504" as="targetPoint" />
          </mxGeometry>
        </mxCell>
        <mxCell id="CxmfcUG0f4hKPXph-VwC-36" value="" style="endArrow=none;html=1;rounded=0;fontSize=16;exitX=0.25;exitY=0;exitDx=0;exitDy=0;entryX=1;entryY=1;entryDx=0;entryDy=0;" edge="1" parent="1" source="CxmfcUG0f4hKPXph-VwC-2" target="CxmfcUG0f4hKPXph-VwC-22">
          <mxGeometry width="50" height="50" relative="1" as="geometry">
            <mxPoint x="550" y="260.0000000000001" as="sourcePoint" />
            <mxPoint x="545.6427915554655" y="89.99693925504948" as="targetPoint" />
          </mxGeometry>
        </mxCell>
        <mxCell id="CxmfcUG0f4hKPXph-VwC-37" value="" style="endArrow=none;html=1;rounded=0;fontSize=16;" edge="1" parent="1" source="CxmfcUG0f4hKPXph-VwC-2" target="CxmfcUG0f4hKPXph-VwC-21">
          <mxGeometry width="50" height="50" relative="1" as="geometry">
            <mxPoint x="520" y="260.0000000000001" as="sourcePoint" />
            <mxPoint x="456.5642366727661" y="111.38222484284142" as="targetPoint" />
          </mxGeometry>
        </mxCell>
        <mxCell id="CxmfcUG0f4hKPXph-VwC-38" value="" style="endArrow=none;html=1;rounded=0;fontSize=16;" edge="1" parent="1" target="CxmfcUG0f4hKPXph-VwC-30">
          <mxGeometry width="50" height="50" relative="1" as="geometry">
            <mxPoint x="480" y="260" as="sourcePoint" />
            <mxPoint x="434.6223240028521" y="202.58335592296658" as="targetPoint" />
          </mxGeometry>
        </mxCell>
        <mxCell id="CxmfcUG0f4hKPXph-VwC-39" value="has" style="rhombus;whiteSpace=wrap;html=1;fontSize=16;" vertex="1" parent="1">
          <mxGeometry x="180" y="400" width="80" height="80" as="geometry" />
        </mxCell>
        <mxCell id="CxmfcUG0f4hKPXph-VwC-40" value="" style="endArrow=none;html=1;rounded=0;fontSize=16;entryX=1;entryY=1;entryDx=0;entryDy=0;exitX=0;exitY=0.5;exitDx=0;exitDy=0;" edge="1" parent="1" source="CxmfcUG0f4hKPXph-VwC-39" target="CxmfcUG0f4hKPXph-VwC-1">
          <mxGeometry width="50" height="50" relative="1" as="geometry">
            <mxPoint x="180" y="350" as="sourcePoint" />
            <mxPoint x="230" y="300" as="targetPoint" />
          </mxGeometry>
        </mxCell>
        <mxCell id="CxmfcUG0f4hKPXph-VwC-41" value="" style="endArrow=none;html=1;rounded=0;fontSize=16;entryX=0;entryY=1;entryDx=0;entryDy=0;exitX=1;exitY=0.5;exitDx=0;exitDy=0;" edge="1" parent="1" source="CxmfcUG0f4hKPXph-VwC-39" target="CxmfcUG0f4hKPXph-VwC-2">
          <mxGeometry width="50" height="50" relative="1" as="geometry">
            <mxPoint x="190" y="450" as="sourcePoint" />
            <mxPoint x="-50" y="330" as="targetPoint" />
          </mxGeometry>
        </mxCell>
        <mxCell id="CxmfcUG0f4hKPXph-VwC-42" value="1" style="text;html=1;align=center;verticalAlign=middle;resizable=0;points=[];autosize=1;strokeColor=none;fillColor=none;fontSize=16;" vertex="1" parent="1">
          <mxGeometry x="15" y="375" width="30" height="30" as="geometry" />
        </mxCell>
        <mxCell id="CxmfcUG0f4hKPXph-VwC-43" value="n" style="text;html=1;align=center;verticalAlign=middle;resizable=0;points=[];autosize=1;strokeColor=none;fillColor=none;fontSize=16;" vertex="1" parent="1">
          <mxGeometry x="360" y="375" width="30" height="30" as="geometry" />
        </mxCell>
      </root>
    </mxGraphModel>
  </diagram>
</mxfile>
